<?xml version="1.0" standalone="no"?>
<!DOCTYPE svg PUBLIC "-//W3C//DTD SVG 20010904//EN"
 "http://www.w3.org/TR/2001/REC-SVG-20010904/DTD/svg10.dtd">
<svg version="1.0" xmlns="http://www.w3.org/2000/svg"
 width="1280.000000pt" height="1154.000000pt" viewBox="0 0 1280.000000 1154.000000"
 preserveAspectRatio="xMidYMid meet">
<g transform="translate(0.000000,1154.000000) scale(0.100000,-0.100000)"
fill="#000000" stroke="none">
<path d="M6793 9920 c-3 -10 -28 -37 -57 -59 -28 -22 -71 -58 -96 -81 -25 -23
-62 -52 -82 -66 -21 -13 -78 -63 -129 -111 -50 -49 -96 -90 -102 -92 -7 -2
-32 -22 -57 -45 -25 -23 -60 -52 -78 -66 -63 -48 -94 -79 -88 -88 10 -17 -22
-47 -51 -47 -19 0 -31 -7 -38 -22 -5 -12 -20 -26 -32 -32 -13 -6 -26 -19 -30
-28 -10 -30 -34 -52 -49 -46 -9 3 -14 -2 -14 -17 0 -16 -5 -21 -22 -18 -16 2
-24 -3 -26 -17 -4 -20 -19 -35 -36 -35 -4 0 -6 7 -2 15 7 20 -8 19 -25 -1 -9
-11 -9 -18 -2 -22 14 -9 -30 -62 -50 -62 -8 0 -17 -6 -20 -14 -9 -22 -54 -48
-83 -48 -16 0 -23 -5 -21 -13 3 -6 1 -18 -3 -25 -7 -11 -11 -11 -26 1 -15 13
-16 12 -10 -9 9 -29 -16 -51 -57 -52 -16 0 -27 -5 -26 -12 1 -7 1 -18 0 -24
-2 -17 -74 -64 -98 -64 -12 0 -23 -7 -25 -17 -2 -11 -13 -18 -28 -18 -19 0
-26 -6 -28 -24 -2 -13 -12 -26 -23 -28 -10 -3 -19 -11 -19 -19 0 -17 -34 -36
-54 -28 -22 8 -40 -5 -27 -20 15 -18 -22 -50 -49 -43 -17 4 -20 2 -14 -15 5
-18 3 -20 -16 -15 -16 4 -20 2 -16 -9 3 -8 -3 -22 -13 -32 -61 -56 -72 -64
-86 -58 -10 4 -15 -1 -15 -15 0 -13 -6 -20 -17 -18 -35 3 -45 -1 -39 -16 3 -9
-14 -34 -46 -65 -40 -40 -57 -50 -74 -46 -17 5 -28 -1 -43 -23 -12 -16 -21
-36 -21 -45 0 -9 -11 -18 -25 -22 -14 -3 -25 -11 -26 -18 -1 -18 -82 -83 -86
-69 -5 15 -116 -69 -133 -103 -7 -13 -19 -24 -26 -24 -6 0 -14 -7 -18 -15 -3
-8 -12 -15 -19 -15 -20 0 -50 -36 -53 -63 -1 -12 -3 -25 -3 -28 -1 -3 -17 -11
-36 -19 -19 -7 -36 -19 -39 -27 -3 -7 -11 -10 -19 -7 -8 3 -40 -20 -75 -54
-46 -45 -58 -62 -50 -70 9 -9 6 -12 -12 -12 -32 0 -51 -12 -54 -36 -2 -10 -10
-19 -19 -19 -9 0 -42 -25 -74 -55 -32 -31 -73 -66 -91 -79 -18 -13 -44 -41
-58 -62 -14 -22 -35 -44 -47 -48 -25 -10 -55 -37 -207 -184 -58 -56 -132 -128
-165 -159 -33 -32 -69 -68 -81 -80 -11 -13 -42 -44 -70 -69 -27 -25 -114 -114
-194 -198 -205 -217 -240 -249 -277 -256 -38 -7 -45 -15 -47 -59 -1 -37 -59
-107 -229 -277 -120 -120 -121 -122 -53 -174 34 -25 35 -26 66 -10 18 9 79 62
137 118 99 94 106 100 119 82 9 -11 14 -45 14 -84 2 -338 0 -452 -9 -551 -6
-63 -11 -159 -11 -212 0 -53 -4 -99 -8 -102 -13 -8 -14 -87 -1 -102 7 -9 7
-19 -1 -33 -6 -12 -11 -40 -10 -64 0 -23 -2 -78 -5 -122 -13 -206 -16 -281
-21 -585 -3 -179 -5 -332 -6 -340 -1 -8 2 -96 6 -195 4 -99 9 -241 12 -315 3
-74 10 -184 15 -245 6 -60 12 -139 13 -175 2 -36 6 -105 10 -155 6 -84 11
-127 37 -330 5 -44 14 -122 19 -173 5 -51 14 -127 20 -168 15 -112 13 -152
-10 -182 l-20 -25 22 -24 c38 -40 105 -53 281 -53 172 0 409 18 657 50 85 11
322 36 525 55 703 67 803 74 867 56 49 -14 84 -5 118 29 27 27 25 52 -6 89
-38 45 -43 76 -55 306 -14 296 -14 291 -6 490 4 99 9 239 12 310 4 124 5 131
27 142 17 8 160 14 498 18 261 3 596 13 743 22 192 11 271 13 279 5 11 -11 0
-82 -62 -427 -10 -60 -24 -157 -30 -215 -5 -58 -14 -145 -20 -195 -5 -49 -10
-205 -10 -346 0 -216 -2 -259 -15 -269 -21 -18 -20 -23 25 -77 21 -26 50 -62
64 -79 14 -16 40 -35 58 -40 46 -13 113 5 141 38 20 24 30 27 122 33 55 3 174
15 265 25 142 16 309 31 640 56 134 10 234 12 1090 19 645 5 856 4 890 -5 83
-22 113 -22 148 -1 24 16 32 28 32 50 0 36 -14 47 -74 61 -27 6 -57 15 -67 21
-12 6 -26 6 -36 0 -11 -5 -359 -11 -818 -14 -759 -5 -1116 -15 -1375 -37 -806
-69 -813 -70 -818 -35 -3 19 -62 65 -82 65 -23 0 -30 49 -30 218 0 235 14 380
70 737 41 260 59 346 95 455 17 50 17 54 1 66 -39 28 -127 27 -589 -5 -76 -6
-374 -11 -661 -11 -521 -2 -523 -2 -566 20 -45 23 -120 24 -142 2 -14 -14 6
-72 42 -117 34 -42 49 -121 52 -270 3 -149 -3 -349 -12 -445 -5 -47 -11 -150
-15 -230 -9 -243 -16 -329 -28 -338 -7 -5 -84 -15 -172 -21 -258 -19 -742 -67
-1190 -116 -392 -43 -640 -54 -666 -28 -5 5 -16 70 -24 144 -8 74 -24 204 -35
289 -11 85 -26 223 -35 305 -8 83 -20 193 -25 245 -16 149 -40 555 -46 780 -3
113 -7 211 -10 218 -2 8 -4 125 -3 260 0 136 0 255 -1 265 -7 82 6 363 19 420
6 27 9 53 5 58 -3 5 0 51 6 102 6 50 14 139 16 197 3 58 12 182 21 275 19 230
22 593 4 717 l-14 98 49 57 c71 83 732 745 913 914 85 79 187 174 225 210 39
37 99 90 133 118 34 28 63 55 65 59 2 4 48 47 103 96 55 48 107 96 115 105 8
9 51 48 95 86 44 39 125 110 180 159 55 49 104 93 109 97 6 5 2 17 -9 29 -16
17 -16 20 -2 20 9 0 20 -8 26 -17 9 -16 19 -9 78 52 37 39 79 76 93 82 14 5
39 22 55 36 116 99 187 157 193 157 8 0 73 55 118 99 12 12 25 21 31 21 13 0
126 88 137 107 16 28 46 53 65 53 10 0 52 31 92 70 41 38 79 70 85 70 6 0 58
40 116 89 58 49 154 128 215 177 60 49 163 134 228 189 66 55 131 109 146 120
15 11 74 57 132 102 118 92 165 123 187 123 16 0 95 -79 532 -525 337 -345
652 -689 828 -906 72 -89 78 -100 82 -150 3 -30 -2 -88 -10 -129 l-14 -74 28
-24 c43 -35 68 -42 108 -31 24 7 41 20 51 39 9 17 20 30 25 30 5 0 51 -48 101
-107 98 -116 278 -314 505 -559 230 -247 738 -815 801 -895 9 -12 10 -31 2
-79 -9 -60 -9 -64 18 -103 l28 -40 -1 -256 c0 -141 -3 -317 -7 -391 -20 -393
-18 -1058 3 -1045 14 9 17 -79 4 -99 -14 -20 -9 -61 8 -83 6 -7 7 -25 3 -40
-8 -28 -7 -159 1 -218 5 -37 14 -157 19 -245 6 -101 15 -192 25 -230 5 -19 10
-75 11 -125 1 -50 8 -105 16 -124 7 -19 11 -41 8 -49 -3 -8 0 -21 6 -28 7 -9
10 -34 6 -67 -3 -29 -1 -60 4 -68 7 -14 9 -37 9 -104 -1 -25 5 -55 15 -78 4
-10 5 -42 2 -71 -3 -31 -1 -60 6 -71 7 -11 12 -58 12 -105 1 -104 22 -265 40
-302 8 -17 11 -52 9 -95 -6 -103 29 -345 77 -535 16 -65 29 -143 29 -173 0
-93 34 -120 119 -96 58 16 80 144 42 252 -52 154 -90 383 -171 1044 -65 539
-85 710 -100 885 -6 69 -13 145 -15 170 -2 25 -11 142 -20 260 -8 118 -18 238
-21 265 -13 122 -12 904 1 1090 8 105 17 300 20 435 3 135 9 246 14 248 12 4
201 -206 271 -303 101 -137 98 -135 135 -135 27 0 37 6 53 35 l21 34 -47 52
c-26 29 -60 68 -77 87 -16 19 -105 116 -196 216 -91 99 -185 204 -208 231 -23
28 -69 80 -102 116 -32 36 -74 85 -91 107 -18 22 -80 92 -137 154 -161 176
-248 272 -287 319 -20 24 -80 91 -133 149 -198 214 -222 241 -216 249 3 5 19
12 36 16 38 8 52 41 38 87 -6 21 -6 70 0 138 6 58 13 170 16 250 3 80 8 174
10 210 2 36 7 126 10 200 6 138 14 250 40 515 31 325 36 563 14 631 -8 26 -17
34 -54 43 -24 6 -62 11 -84 11 -34 0 -42 -4 -46 -22 l-6 -23 -287 0 c-158 0
-292 3 -298 7 -6 4 -14 30 -18 57 -6 42 -12 53 -40 70 -34 22 -63 25 -105 14
-23 -6 -23 -8 -17 -87 15 -196 5 -1171 -13 -1189 -9 -9 -20 -3 -49 33 -20 24
-77 90 -127 145 -49 56 -139 158 -200 226 -120 136 -191 212 -485 519 -108
113 -216 228 -240 255 -24 28 -92 100 -150 161 -58 61 -115 125 -128 143 -22
29 -28 31 -84 31 -51 0 -61 -3 -65 -20z m2302 -504 l28 -18 -6 -222 c-4 -121
-11 -279 -17 -351 -17 -215 -24 -328 -22 -365 0 -19 -4 -73 -9 -120 -6 -47
-12 -116 -14 -155 -9 -170 -25 -342 -35 -371 -6 -17 -10 -35 -9 -40 5 -20 -14
-115 -24 -121 -5 -3 -32 18 -59 48 -28 30 -89 97 -138 149 -49 52 -136 153
-195 223 l-106 129 3 600 c3 565 4 600 21 613 13 9 58 14 150 14 72 1 133 4
137 7 3 3 64 4 136 2 105 -3 136 -7 159 -22z"/>
<path d="M6718 6699 c-27 -15 -22 -34 17 -68 119 -104 434 -192 842 -236 34
-4 66 -12 71 -18 13 -17 23 -263 12 -316 -12 -68 -21 -71 -209 -71 -209 0
-313 12 -396 45 -61 25 -116 32 -190 23 l-30 -3 3 150 c4 147 -7 260 -30 309
-18 42 -113 61 -153 32 -16 -11 -17 -18 -7 -42 25 -65 35 -161 37 -384 1 -129
-1 -239 -4 -245 -3 -5 -6 -46 -7 -90 0 -44 -4 -105 -8 -135 -5 -45 -11 -202
-19 -510 -1 -62 25 -197 49 -251 32 -70 121 -150 190 -169 66 -19 168 2 352
70 170 62 290 100 392 124 106 24 409 74 490 80 41 4 136 14 211 23 74 9 143
14 152 10 22 -8 22 -49 -2 -168 -31 -155 -34 -210 -11 -247 23 -37 54 -52 111
-52 55 0 93 38 108 108 16 75 15 85 -7 73 -21 -11 -35 -4 -50 25 -13 25 4 252
20 269 5 6 63 10 131 10 136 0 177 14 177 58 -1 39 -21 54 -84 59 -47 4 -63
10 -79 29 -15 19 -29 24 -67 24 -27 0 -51 3 -55 7 -4 4 0 51 8 105 9 54 21
134 27 178 5 44 15 116 21 160 26 189 18 170 92 199 26 11 37 21 37 36 0 35
-18 59 -56 75 -33 13 -35 17 -29 45 4 17 7 131 8 254 1 254 -3 269 -69 282
-45 8 -219 -2 -339 -21 -351 -54 -703 -53 -1035 1 -180 30 -341 74 -415 114
-39 21 -97 43 -130 49 -32 6 -59 11 -59 11 -1 0 -9 -5 -18 -11z m1876 -266
c20 -66 33 -374 17 -416 l-10 -24 -388 4 c-213 3 -392 9 -396 13 -8 7 9 318
19 351 6 22 48 29 192 35 64 3 189 15 276 27 221 31 283 33 290 10z m-1724
-444 c0 -14 82 -56 151 -77 92 -28 304 -44 475 -36 112 5 143 4 149 -6 14 -23
14 -71 -1 -175 -15 -110 -12 -416 6 -565 7 -65 7 -87 -3 -96 -6 -6 -50 -19
-97 -29 -47 -10 -193 -54 -325 -97 -132 -44 -250 -80 -263 -80 -50 -1 -97 68
-134 199 -22 73 -23 96 -23 368 0 297 11 553 26 592 8 21 39 23 39 2z m1637
-105 l73 -6 19 -44 c11 -25 18 -50 15 -58 -3 -7 -7 -33 -9 -57 -3 -24 -9 -73
-15 -109 -5 -36 -14 -101 -20 -145 -5 -44 -14 -102 -20 -130 -6 -27 -12 -76
-13 -107 -1 -31 -7 -62 -13 -68 -11 -11 -208 -39 -419 -60 -60 -6 -145 -17
-189 -25 -99 -19 -95 -19 -105 8 -42 109 -41 744 0 794 8 9 53 13 158 15 189
4 446 0 538 -8z"/>
<path d="M5319 6486 c-3 -3 -70 -13 -150 -21 -150 -15 -350 -49 -504 -84 -49
-11 -137 -31 -195 -45 -307 -70 -417 -84 -480 -61 -72 27 -136 38 -174 31 -49
-9 -47 -36 4 -76 23 -18 39 -37 37 -43 -2 -6 -19 -16 -38 -22 -29 -11 -34 -16
-31 -41 8 -79 0 -850 -11 -1069 -15 -284 -16 -279 64 -305 38 -13 41 -12 69
15 l30 29 0 385 c0 213 3 400 8 416 10 34 0 33 172 16 65 -6 180 -9 265 -5 90
3 156 1 164 -4 10 -7 13 -30 11 -88 -5 -160 -5 -176 3 -181 11 -7 8 -51 -5
-74 -10 -17 -10 -23 0 -26 17 -7 15 -23 -4 -23 -9 0 -14 -7 -13 -17 1 -10 -1
-26 -5 -35 -4 -9 -2 -26 4 -38 9 -16 8 -25 -1 -36 -10 -13 -10 -17 0 -24 11
-6 11 -17 1 -61 -8 -30 -12 -96 -11 -149 1 -52 2 -104 2 -115 -1 -11 -1 -55
-1 -97 -1 -72 -3 -78 -23 -82 -68 -14 -157 -27 -272 -41 -272 -32 -312 -37
-385 -52 -138 -27 -166 -61 -86 -104 l45 -23 103 17 c57 10 159 24 228 33 114
13 324 47 377 60 22 6 43 -18 43 -51 0 -31 32 -86 65 -111 29 -21 36 -23 59
-13 32 15 33 41 6 100 -24 55 -25 86 -2 98 16 8 269 46 484 72 87 10 101 10
123 -5 14 -9 25 -21 25 -26 0 -11 72 -50 91 -50 18 0 89 33 89 41 0 21 37 38
97 44 99 11 140 30 149 68 11 52 -16 65 -142 65 -58 0 -110 4 -114 8 -11 11
-55 186 -70 281 -34 209 -32 618 6 1123 13 181 24 275 39 326 11 35 -23 63
-85 70 -30 3 -58 3 -61 0z m-49 -135 c5 -11 8 -39 5 -63 -8 -77 -27 -401 -26
-460 0 -17 -7 -32 -18 -38 -22 -11 -240 -36 -408 -46 -110 -6 -113 -6 -121 16
-4 12 -4 54 0 93 39 357 48 421 60 433 15 14 175 48 324 68 145 20 171 20 184
-3z m-688 -281 c-2 -96 -6 -211 -10 -254 l-7 -80 -35 -9 c-19 -5 -141 -7 -270
-5 -192 4 -242 7 -274 21 l-39 17 8 133 c7 120 7 167 2 236 -2 23 -1 24 113
26 95 2 147 10 295 45 99 23 182 44 185 46 2 3 11 3 20 2 13 -3 15 -27 12
-178z m630 -419 l24 -9 -2 -264 c-1 -283 11 -448 47 -599 11 -49 18 -93 14
-99 -3 -5 -17 -10 -30 -10 -13 0 -50 -7 -82 -15 -32 -8 -105 -19 -163 -25 -58
-7 -161 -20 -229 -31 -89 -14 -127 -17 -135 -9 -15 15 -13 536 4 720 7 80 15
177 19 217 3 40 11 76 16 82 9 8 154 24 390 41 55 4 101 8 102 8 1 1 12 -2 25
-7z"/>
</g>
</svg>
