<?xml version="1.0" standalone="no"?>
<!DOCTYPE svg PUBLIC "-//W3C//DTD SVG 20010904//EN"
 "http://www.w3.org/TR/2001/REC-SVG-20010904/DTD/svg10.dtd">
<svg version="1.0" xmlns="http://www.w3.org/2000/svg"
 width="15360.000000pt" height="8640.000000pt" viewBox="0 0 15360.000000 8640.000000"
 preserveAspectRatio="xMidYMid meet">

<g transform="translate(0.000000,8640.000000) scale(0.100000,-0.100000)"
fill="#000000" stroke="none">
<path d="M47615 76674 c-346 -11 -880 -73 -1297 -149 -343 -63 -401 -77 -713
-166 -999 -285 -1763 -638 -2620 -1212 -132 -88 -278 -193 -325 -232 -47 -39
-114 -94 -150 -121 -139 -104 -271 -218 -566 -486 -253 -229 -800 -822 -889
-963 -11 -16 -65 -91 -121 -165 -219 -293 -321 -443 -483 -707 -338 -552 -694
-1329 -847 -1843 -25 -85 -65 -218 -89 -295 -57 -178 -169 -638 -190 -775 -8
-58 -31 -190 -50 -295 -38 -210 -82 -651 -95 -960 -5 -104 -9 -8850 -9 -19435
-1 -13285 -4 -19307 -11 -19445 -12 -218 -32 -422 -56 -554 -8 -46 -13 -90
-10 -98 4 -9 1 -11 -5 -7 -8 5 -10 -4 -7 -29 2 -20 0 -33 -4 -31 -4 3 -8 -3
-8 -14 0 -51 -106 -435 -160 -580 -33 -90 -57 -169 -54 -175 4 -7 3 -9 -1 -4
-5 4 -27 -39 -50 -95 -259 -642 -781 -1301 -1380 -1743 -271 -200 -582 -376
-857 -486 -92 -36 -165 -69 -162 -72 3 -3 -1 -5 -8 -4 -34 1 -49 -4 -42 -15 4
-7 3 -8 -5 -4 -15 10 -83 -13 -76 -25 4 -5 0 -6 -8 -3 -8 3 -37 -4 -66 -16
-104 -40 -625 -160 -700 -160 -12 0 -20 -4 -17 -9 4 -5 -3 -7 -13 -4 -11 3
-79 -3 -153 -13 -189 -25 -677 -25 -866 0 -74 10 -146 15 -160 12 -20 -5 -23
-4 -12 4 12 8 10 10 -11 10 -14 0 -106 16 -203 35 -98 19 -183 32 -188 28 -6
-3 -8 -2 -5 4 3 5 -45 21 -111 37 -64 16 -146 39 -181 52 -35 14 -74 22 -85
19 -13 -4 -16 -3 -9 2 16 11 -161 78 -178 67 -7 -4 -9 -3 -5 4 8 13 -29 26
-45 16 -7 -4 -9 -3 -5 4 8 13 -29 26 -45 16 -7 -4 -9 -3 -5 4 8 13 -29 26 -45
16 -7 -4 -9 -3 -5 4 8 13 -29 26 -45 16 -8 -5 -9 -3 -4 6 6 10 4 12 -11 6 -10
-4 -16 -4 -12 -1 6 6 -320 178 -339 178 -7 0 -10 3 -8 6 2 4 -51 40 -118 81
-67 41 -147 94 -179 118 -33 23 -63 40 -68 37 -5 -3 -12 0 -16 6 -5 8 -3 9 7
4 27 -15 -5 11 -90 75 -193 145 -466 408 -656 630 -103 121 -111 130 -100 111
5 -10 4 -12 -4 -7 -6 4 -9 11 -6 15 7 12 -41 72 -50 63 -5 -4 -6 -2 -2 3 3 6
-19 44 -49 85 -30 41 -71 101 -90 132 -20 32 -38 58 -40 58 -3 0 -2 -5 2 -12
4 -7 3 -8 -5 -4 -6 4 -9 12 -6 17 9 13 -27 69 -38 62 -6 -3 -7 -2 -4 4 3 5
-11 37 -32 71 -21 35 -46 80 -56 102 -10 22 -22 37 -27 34 -5 -3 -7 -2 -6 3 5
16 -24 73 -35 66 -5 -3 -7 -1 -3 5 8 13 -24 83 -36 76 -4 -3 -5 3 -1 12 4 11
2 15 -4 11 -6 -4 -11 -1 -10 6 1 32 -4 48 -13 42 -6 -4 -7 1 -3 11 5 13 3 15
-7 9 -9 -5 -11 -4 -6 4 4 6 -15 69 -43 139 -211 537 -299 942 -330 1527 -8
142 -11 5128 -11 17153 0 9324 -3 16951 -7 16949 -5 -3 -6 20 -4 51 5 77 -20
287 -31 270 -6 -9 -7 -5 -3 10 9 33 -6 143 -16 117 -4 -12 -6 1 -3 30 4 35 3
46 -4 36 -8 -11 -9 -2 -5 29 4 26 2 41 -3 37 -6 -3 -8 9 -6 30 3 23 1 33 -6
29 -6 -4 -8 2 -5 14 6 24 -16 122 -27 115 -4 -2 -5 7 -2 22 4 19 2 24 -8 18
-9 -5 -11 -4 -6 3 19 31 -211 661 -235 646 -5 -3 -6 2 -3 10 6 16 -105 238
-116 231 -4 -2 -7 1 -7 8 0 14 -72 141 -98 172 -9 11 -13 14 -9 6 5 -9 3 -12
-5 -7 -6 4 -9 11 -6 17 8 12 -40 81 -50 71 -5 -4 -5 -2 -2 4 15 25 -225 323
-414 514 -190 192 -500 456 -522 443 -7 -3 -9 -2 -5 2 9 10 -160 124 -324 219
-134 77 -331 169 -498 231 -168 62 -442 147 -457 140 -9 -3 -11 0 -7 7 5 7 -1
9 -19 6 -15 -3 -25 -2 -22 1 2 4 -72 19 -163 34 -345 57 -383 60 -677 61 -291
0 -428 -11 -665 -54 -58 -11 -133 -24 -167 -30 -34 -6 -110 -26 -170 -45 -59
-18 -157 -48 -218 -66 -381 -111 -892 -404 -1260 -719 -270 -232 -553 -555
-709 -810 -33 -52 -74 -118 -92 -147 -18 -28 -78 -140 -132 -250 -196 -392
-334 -887 -374 -1343 -7 -75 -13 -3784 -17 -10790 -6 -10041 -8 -10681 -24
-10779 -39 -233 -116 -469 -222 -681 -65 -129 -144 -267 -176 -309 -10 -13
-16 -27 -14 -31 3 -5 0 -12 -6 -16 -8 -5 -9 -3 -4 7 12 22 -7 0 -45 -51 -128
-170 -264 -302 -467 -452 -56 -42 -99 -79 -95 -84 4 -4 1 -4 -5 0 -11 6 -103
-39 -103 -51 0 -2 5 -1 12 3 7 4 8 3 4 -5 -4 -6 -11 -9 -16 -6 -13 8 -240
-107 -233 -119 3 -5 1 -6 -4 -3 -6 4 -70 -15 -142 -43 -72 -27 -146 -52 -166
-56 -19 -3 -33 -10 -30 -14 2 -4 -7 -5 -22 -2 -16 3 -24 1 -20 -5 4 -6 -4 -8
-20 -5 -19 4 -24 2 -18 -8 5 -8 4 -11 -3 -6 -13 8 -93 -4 -88 -13 2 -3 -17 -6
-42 -7 -96 -2 -263 -17 -253 -23 13 -8 -104 -4 -304 11 -88 7 -185 12 -215 12
-30 0 -46 2 -35 4 11 3 -34 18 -100 34 -65 16 -125 26 -133 23 -8 -3 -10 0 -6
7 5 7 0 9 -14 6 -12 -4 -20 -3 -17 2 2 4 -42 24 -98 45 -179 66 -449 209 -569
302 -32 24 -62 42 -67 39 -5 -3 -15 2 -22 12 -13 16 -12 16 6 3 36 -26 -3 9
-103 95 -139 118 -318 333 -417 500 -126 212 -241 481 -286 666 -13 58 -26 93
-31 85 -4 -6 -5 6 -1 27 3 23 2 37 -3 34 -5 -4 -9 13 -10 35 0 23 -6 101 -14
172 -12 109 -15 1202 -20 6685 -5 4412 -10 6594 -18 6675 -19 224 -34 335 -45
328 -6 -3 -7 -1 -3 6 15 24 -98 454 -149 564 -17 40 -40 97 -50 127 -28 88
-141 315 -222 445 -225 364 -461 624 -823 910 -422 333 -1017 575 -1585 645
-217 27 -567 27 -785 1 -197 -24 -461 -85 -665 -154 -319 -108 -683 -301 -922
-489 -511 -403 -815 -804 -1060 -1398 -66 -158 -145 -416 -168 -550 -9 -47
-23 -121 -31 -165 -34 -181 -37 -324 -40 -2752 l-4 -2413 -1260 0 -1260 0 0
-920 0 -920 1718 0 c1966 0 1889 -3 2092 82 213 90 354 225 463 443 45 91 64
165 86 330 8 55 11 954 11 2890 0 1755 4 2845 10 2903 5 50 17 127 27 170 9
42 17 90 16 105 0 17 3 24 7 17 10 -17 24 45 14 62 -4 7 -4 10 1 6 11 -10 47
71 38 86 -3 6 -3 8 2 4 8 -7 67 106 68 130 0 6 3 10 5 7 3 -3 17 14 30 37 14
24 36 56 49 71 13 16 21 32 18 37 -2 4 5 16 18 26 l22 19 -20 -25 c-11 -14 13
10 53 52 40 42 101 103 135 135 34 31 53 51 42 43 -18 -14 -19 -14 -6 2 7 10
16 16 20 13 4 -2 23 9 42 24 44 37 194 123 253 145 27 11 43 22 40 28 -4 6 -3
8 3 5 12 -8 96 17 87 25 -3 4 4 4 17 1 12 -4 20 -2 17 3 -4 5 4 9 15 10 12 0
57 8 100 17 249 55 508 43 753 -34 54 -17 107 -32 116 -32 9 -1 15 -3 13 -5
-2 -3 23 -18 58 -34 91 -43 174 -95 250 -157 38 -31 73 -55 77 -54 4 1 14 -4
20 -12 7 -8 9 -15 5 -15 -4 0 32 -41 80 -92 103 -109 179 -221 239 -349 44
-95 106 -291 106 -336 0 -13 4 -21 10 -18 5 3 8 0 5 -7 -3 -7 0 -54 7 -103 9
-69 13 -1666 18 -6775 l5 -6685 28 -170 c26 -157 56 -305 107 -530 65 -285
283 -780 490 -1115 222 -357 526 -711 830 -964 277 -231 414 -324 740 -504
236 -131 453 -220 800 -328 216 -68 433 -111 745 -150 201 -25 669 -25 855 -1
235 32 409 60 405 67 -2 3 13 4 33 2 28 -2 33 -1 22 7 -11 8 -4 9 25 5 32 -5
37 -3 25 6 -13 10 -13 11 3 6 25 -8 78 4 70 17 -3 6 -1 7 5 3 20 -12 531 152
517 166 -4 3 0 6 7 5 34 -1 49 4 42 15 -4 6 -3 8 3 5 6 -4 55 11 109 34 101
41 408 199 441 226 10 8 12 11 4 7 -9 -5 -12 -3 -7 5 4 6 12 9 17 6 12 -8 51
20 41 30 -4 5 -2 5 5 1 10 -6 83 29 83 41 0 2 -5 1 -12 -3 -7 -4 -8 -3 -4 5 4
6 12 9 17 6 12 -8 51 20 41 30 -4 5 -1 5 5 1 28 -16 475 347 654 531 233 238
588 704 565 742 -4 5 -1 13 5 17 8 5 10 2 5 -7 -4 -8 0 -5 8 6 9 11 14 25 12
32 -3 7 0 15 6 19 7 4 8 3 4 -4 -4 -7 -5 -12 -3 -12 12 0 47 73 41 83 -4 7 -3
9 1 4 9 -8 78 107 80 134 1 19 117 281 122 275 4 -4 -53 -140 -91 -213 -14
-29 -24 -53 -21 -53 31 0 316 746 301 786 -4 10 -2 12 6 8 7 -5 9 1 6 19 -3
15 -2 24 2 22 18 -11 76 249 65 294 -4 21 -3 23 6 11 8 -11 9 -3 5 35 -2 28
-1 41 3 31 10 -25 35 153 27 192 -3 15 -2 20 2 12 3 -8 13 25 21 75 12 78 15
1542 20 10815 6 10165 7 10730 24 10824 10 55 27 130 38 168 11 37 17 73 13
79 -5 8 -3 9 6 4 10 -6 12 -3 8 13 -4 14 -2 20 5 15 6 -4 8 2 5 15 -4 14 -2
20 5 15 6 -4 8 2 5 15 -4 12 -3 20 2 17 4 -2 20 30 35 73 16 42 37 94 47 115
10 21 16 43 12 50 -4 7 -3 9 1 4 9 -7 86 126 88 151 0 6 2 10 5 7 3 -2 18 17
35 43 39 62 99 133 227 268 105 110 105 110 -20 -15 -69 -69 -116 -114 -105
-100 45 56 229 238 237 233 4 -3 34 18 67 47 32 28 79 63 105 78 25 15 44 30
41 33 -3 2 1 5 8 5 6 0 48 22 92 47 44 25 88 49 98 52 9 3 15 10 12 15 -3 5 2
6 11 2 12 -4 15 -3 10 5 -5 8 -1 10 10 5 13 -5 15 -3 9 7 -5 9 -4 11 4 6 16
-10 83 13 75 26 -4 7 -2 8 5 4 14 -9 83 13 76 24 -3 4 5 6 17 2 16 -4 19 -2
13 8 -5 8 -4 11 3 6 6 -3 57 7 114 24 163 49 277 63 503 63 273 1 415 -25 683
-124 187 -69 308 -135 475 -260 321 -241 533 -529 670 -909 24 -69 48 -147 51
-175 4 -27 14 -75 23 -105 8 -30 20 -80 26 -110 7 -39 12 -5125 16 -17275 6
-16336 7 -17227 24 -17360 53 -423 74 -553 133 -820 103 -466 298 -1006 509
-1409 202 -387 405 -708 634 -1001 280 -361 721 -798 1076 -1070 189 -144 395
-288 412 -288 7 0 11 -3 8 -5 -7 -7 12 -20 214 -136 380 -220 669 -356 1029
-485 79 -28 148 -48 154 -45 7 5 8 2 3 -6 -6 -10 -3 -12 13 -8 14 4 20 2 15
-5 -4 -6 2 -8 16 -4 13 3 20 3 17 -1 -9 -8 245 -84 262 -77 7 2 11 1 8 -4 -7
-11 169 -55 189 -47 9 3 14 2 11 -2 -2 -4 55 -20 127 -35 195 -41 248 -49 269
-43 11 2 17 2 13 -2 -15 -15 402 -68 464 -58 24 4 29 3 16 -3 -62 -26 727 -36
987 -11 92 8 145 17 141 23 -4 6 -1 7 6 2 15 -9 183 4 177 14 -3 4 11 5 31 3
20 -3 33 -1 30 5 -3 5 10 7 30 5 20 -3 33 0 30 4 -3 5 13 8 36 6 30 -2 38 0
28 7 -11 7 -2 8 30 5 31 -4 40 -3 30 5 -11 7 -2 8 30 5 31 -4 40 -3 30 5 -11
7 -2 8 30 5 35 -5 41 -3 29 6 -13 10 -12 11 3 6 25 -8 98 4 91 15 -3 5 2 6 10
3 29 -11 441 91 431 107 -3 4 5 5 17 1 16 -4 19 -2 13 8 -6 9 -4 11 4 5 16 -9
103 14 95 26 -3 5 2 6 10 3 19 -7 118 25 111 36 -3 4 5 6 17 2 13 -3 19 -1 15
5 -5 7 1 9 15 5 13 -3 19 -1 15 5 -5 7 1 9 15 5 16 -4 19 -2 13 8 -5 8 -4 11
2 7 15 -10 223 65 216 77 -3 5 -1 6 4 3 14 -9 125 37 116 48 -5 4 -3 5 3 2 13
-8 77 16 68 25 -3 3 1 6 8 5 34 -1 49 4 42 15 -4 6 -3 8 3 5 15 -9 75 17 66
28 -5 4 -3 5 4 1 15 -8 164 65 156 77 -3 6 -1 7 5 4 22 -15 481 247 707 403
179 124 427 310 366 275 -10 -5 -12 -4 -7 4 4 6 11 9 16 6 31 -19 545 468 812
770 128 144 281 342 273 354 -2 5 3 15 13 22 15 12 16 12 7 -1 -5 -9 0 -4 13
10 44 49 163 230 158 239 -3 5 2 15 12 22 15 12 16 12 7 -1 -5 -9 0 -5 11 8
38 43 115 182 108 193 -4 7 -3 9 3 6 13 -8 167 259 157 274 -4 7 -3 9 2 6 21
-13 253 471 237 496 -3 6 -1 7 5 3 11 -7 16 7 15 41 -1 7 4 10 10 6 6 -4 8 2
5 15 -4 12 -3 20 2 17 9 -6 9 -5 56 124 19 52 32 101 30 108 -3 8 -2 12 3 8
12 -7 35 61 25 76 -5 8 -3 9 6 4 10 -6 12 -3 8 13 -4 12 -2 20 2 17 5 -3 23
40 39 95 111 362 124 415 116 449 -3 15 -2 21 3 14 9 -15 66 242 67 304 0 22
3 39 6 37 9 -5 32 174 23 187 -5 8 -3 9 6 4 10 -6 12 2 7 41 -4 35 -3 43 4 29
7 -14 8 -3 5 40 -3 40 -1 53 5 40 6 -14 8 -3 6 37 -1 31 0 54 3 51 3 -3 11 44
19 104 12 92 15 3042 21 19578 5 13833 10 19519 18 19640 41 638 176 1358 351
1860 282 814 676 1539 1159 2133 369 455 631 716 1084 1084 587 477 1352 892
2145 1164 94 32 169 62 167 65 -2 4 6 5 18 1 13 -3 19 -1 15 5 -4 6 4 8 20 5
18 -3 24 -1 19 6 -4 7 -2 10 7 6 8 -3 95 15 193 40 281 70 845 173 963 177 24
0 24 1 6 9 -14 6 -8 8 20 4 22 -3 108 1 190 10 231 24 604 30 875 15 129 -7
266 -13 303 -13 42 0 61 -3 50 -8 -10 -5 8 -7 45 -5 38 2 57 0 50 -6 -8 -5 8
-7 40 -4 30 2 49 1 43 -2 -6 -4 60 -17 147 -30 171 -24 520 -91 646 -122 43
-11 85 -18 93 -15 9 4 11 1 7 -6 -5 -7 1 -9 19 -6 16 3 24 1 20 -5 -4 -6 4 -8
20 -5 15 3 24 2 22 -2 -2 -3 31 -15 73 -25 42 -9 181 -54 307 -98 127 -44 238
-80 247 -81 9 0 14 -5 11 -10 -4 -5 3 -7 15 -4 12 4 20 3 17 -1 -7 -12 152
-74 166 -65 7 4 10 3 5 -4 -8 -13 29 -26 45 -16 8 5 9 3 4 -6 -6 -10 -4 -12 9
-7 10 4 15 3 11 -3 -6 -9 10 -14 42 -13 7 1 10 -4 6 -10 -4 -6 0 -8 11 -4 9 4
15 3 12 -2 -3 -4 54 -35 126 -67 167 -75 457 -229 660 -351 87 -52 162 -92
167 -88 5 3 13 0 17 -6 4 -8 3 -9 -4 -5 -7 4 -12 5 -12 3 0 -10 72 -47 80 -42
5 3 12 0 16 -6 5 -8 3 -9 -7 -4 -40 23 22 -24 165 -124 390 -275 822 -658
1125 -1001 444 -502 743 -934 1012 -1467 75 -149 140 -268 144 -265 3 4 3 -2
-1 -12 -6 -15 -4 -17 6 -11 9 5 11 4 6 -4 -10 -15 13 -73 25 -65 5 3 6 -3 2
-12 -5 -13 -3 -15 7 -9 8 5 11 4 7 -2 -9 -14 17 -76 27 -66 4 4 4 -1 0 -11 -6
-15 -4 -17 6 -11 9 5 11 4 6 -4 -10 -16 3 -53 16 -45 7 5 8 2 4 -5 -9 -14 53
-173 65 -166 4 3 5 -5 1 -17 -3 -12 -1 -19 4 -15 5 3 10 -2 10 -11 1 -9 35
-116 78 -236 42 -120 101 -316 131 -435 55 -221 129 -579 141 -686 5 -42 9
-54 15 -40 4 11 5 -4 3 -35 -3 -42 -2 -50 6 -35 9 17 9 16 5 -9 -3 -16 -1 -61
5 -100 5 -39 20 -156 32 -261 l22 -190 7 -10425 c4 -6944 10 -10473 17 -10570
32 -458 114 -983 222 -1423 72 -294 207 -751 242 -820 10 -21 52 -125 93 -230
83 -216 296 -661 432 -902 50 -88 107 -194 128 -235 36 -72 52 -98 218 -345
109 -162 415 -572 497 -665 36 -41 102 -118 145 -170 116 -137 599 -618 745
-740 68 -58 145 -123 170 -146 131 -119 658 -495 855 -611 306 -180 550 -315
655 -363 63 -29 153 -72 200 -95 118 -59 487 -209 710 -289 434 -155 841 -261
1281 -335 564 -94 784 -113 1334 -115 352 -1 800 18 791 33 -2 3 21 4 51 3 35
-3 53 0 49 6 -3 6 2 8 12 5 23 -6 242 25 552 78 658 113 1450 374 2059 679
373 186 783 417 773 435 -3 5 -2 7 3 3 4 -4 22 0 39 9 45 23 136 89 131 95 -3
3 1 5 7 5 31 0 489 343 738 552 245 207 678 639 885 886 180 214 292 361 287
379 -2 6 0 8 4 4 8 -9 116 131 109 143 -3 4 0 11 6 15 8 5 9 3 4 -7 -20 -36
19 17 110 146 235 335 594 1004 773 1441 111 270 204 532 196 546 -5 7 -2 8 6
3 10 -6 12 -3 8 13 -4 14 -2 20 5 15 6 -4 8 2 5 15 -4 14 -2 20 4 16 7 -5 9 2
6 19 -3 16 -1 24 5 20 6 -4 8 2 5 15 -4 14 -2 20 5 15 6 -4 8 2 4 16 -3 13 -3
20 1 17 9 -9 63 174 131 444 78 308 179 892 167 963 -4 23 -4 27 3 12 11 -26
26 105 26 232 0 51 3 85 6 75 15 -43 21 264 29 1443 5 759 12 1328 19 1415 6
80 9 152 6 160 -4 8 -3 11 2 7 8 -8 35 161 36 221 0 22 3 29 10 20 5 -8 7 2 3
27 -3 23 -2 34 3 27 6 -10 11 -3 15 23 41 218 248 738 376 945 35 56 63 109
63 116 0 8 2 12 5 9 8 -7 74 84 67 94 -3 5 0 13 6 17 8 5 10 2 4 -7 -4 -8 4 0
19 16 14 17 24 35 21 42 -2 6 4 17 13 25 16 12 16 11 2 -7 -28 -40 9 2 90 100
158 190 361 385 558 532 89 67 108 83 83 68 -10 -5 -12 -4 -7 4 4 6 11 9 16 6
4 -2 18 4 31 14 45 35 244 154 311 186 37 18 64 36 60 39 -3 4 2 4 12 0 15 -6
17 -4 11 6 -5 8 -4 11 2 7 14 -9 74 13 67 24 -3 5 3 6 12 2 13 -5 15 -3 9 7
-5 8 -4 11 2 7 16 -10 74 13 66 26 -3 6 -1 7 6 3 16 -10 102 24 94 37 -3 6 -1
7 6 3 14 -9 53 2 46 14 -3 4 5 6 17 2 16 -4 19 -2 13 8 -5 8 -4 11 2 7 14 -9
83 14 76 26 -4 6 -1 7 6 2 17 -10 204 47 188 57 -6 4 3 5 22 1 24 -4 32 -3 27
5 -4 7 -2 10 7 6 7 -2 60 6 118 20 181 42 366 59 654 59 297 0 474 -17 674
-64 69 -16 131 -27 138 -24 8 2 12 1 9 -3 -7 -11 142 -54 157 -46 7 4 9 4 5
-1 -9 -10 152 -66 165 -58 6 3 7 1 3 -5 -7 -11 7 -16 41 -15 7 1 10 -3 7 -8
-5 -8 13 -13 44 -12 7 1 11 -1 8 -4 -3 -3 58 -34 137 -68 635 -277 1267 -898
1542 -1517 34 -76 65 -135 69 -131 4 4 4 -1 0 -11 -6 -15 -4 -17 6 -11 9 5 11
4 6 -4 -10 -16 3 -53 16 -45 7 4 8 2 4 -5 -9 -14 2 -53 14 -46 4 3 6 -5 2 -17
-3 -13 -1 -19 5 -15 6 4 11 1 10 -6 -1 -31 4 -48 12 -43 5 3 9 0 8 -7 -1 -31
4 -48 12 -43 5 4 7 -4 3 -16 -3 -13 -1 -19 5 -15 6 4 8 -4 5 -20 -4 -19 -2
-24 8 -18 9 5 11 4 6 -3 -4 -6 4 -49 18 -94 60 -196 99 -416 118 -648 6 -77
13 -684 18 -1410 6 -1069 10 -1306 24 -1465 105 -1179 434 -2256 995 -3250
134 -238 262 -455 268 -455 2 0 1 5 -3 12 -4 7 -3 8 5 4 6 -4 9 -11 6 -16 -10
-16 417 -605 545 -750 36 -41 102 -118 145 -170 122 -145 601 -620 775 -768
310 -264 756 -589 1030 -749 442 -258 780 -429 1130 -573 691 -283 1254 -434
2030 -544 296 -42 568 -58 985 -60 352 -1 800 18 791 33 -2 3 21 4 51 3 35 -3
53 0 49 6 -3 6 2 8 12 5 23 -6 242 25 552 78 658 113 1450 374 2059 679 373
186 783 417 773 435 -3 5 -2 7 3 3 4 -4 22 0 39 9 45 23 136 89 131 95 -3 3 1
5 8 5 30 0 488 343 737 552 245 207 678 639 885 886 180 214 292 361 287 379
-2 6 0 8 4 4 8 -9 57 55 221 287 129 182 156 228 145 240 -4 5 -2 6 3 3 10 -6
111 161 248 412 355 649 593 1259 772 1970 73 291 174 881 160 939 -4 21 -3
23 6 11 8 -11 9 -2 6 40 -4 38 -3 49 4 35 6 -14 8 0 6 45 -2 36 -1 58 2 50 3
-8 12 53 19 135 12 125 15 1202 18 6363 l4 6212 -920 0 -920 0 -3 -6137 c-3
-4381 -7 -6181 -15 -6288 -42 -566 -202 -1247 -421 -1798 -17 -43 -28 -84 -25
-90 4 -7 3 -9 -1 -4 -5 4 -27 -39 -50 -95 -96 -238 -336 -673 -515 -933 -295
-431 -568 -752 -931 -1094 -158 -150 -417 -364 -566 -468 -40 -28 -69 -54 -65
-59 4 -5 3 -6 -2 -2 -5 4 -84 -43 -175 -106 -267 -181 -733 -426 -1061 -556
-393 -157 -930 -309 -1269 -361 -44 -7 -78 -16 -75 -21 3 -4 -2 -5 -10 -2 -9
3 -59 -1 -113 -10 -417 -68 -1262 -68 -1657 0 -49 8 -101 13 -115 9 -21 -4
-23 -3 -11 5 12 9 7 10 -22 8 -20 -2 -35 -1 -32 3 2 3 -18 9 -45 13 -196 26
-655 146 -956 251 -475 166 -957 396 -1258 602 -60 40 -112 71 -117 68 -5 -3
-12 0 -16 6 -4 8 -3 9 4 5 7 -4 12 -5 12 -3 0 10 -142 97 -149 92 -5 -2 -15 3
-22 13 -13 15 -12 16 4 3 9 -7 17 -11 17 -8 0 3 -44 36 -97 73 -117 81 -155
111 -293 229 -351 300 -800 774 -983 1037 -30 43 -56 76 -59 73 -2 -3 -5 1 -5
8 0 16 -139 218 -145 212 -3 -3 -5 1 -5 8 0 6 -26 49 -57 94 -113 164 -347
603 -431 811 -23 56 -44 100 -47 97 -3 -4 -6 0 -5 7 1 31 -4 49 -12 44 -5 -3
-9 0 -8 7 1 31 -4 48 -12 43 -5 -3 -9 0 -8 7 1 31 -4 48 -12 43 -5 -3 -9 0 -8
7 1 31 -4 48 -12 43 -5 -4 -7 4 -3 16 3 13 1 19 -5 15 -7 -5 -9 1 -5 15 3 13
1 19 -5 15 -7 -5 -9 1 -5 15 3 13 1 19 -5 15 -7 -5 -9 1 -5 15 4 16 2 19 -8
13 -9 -5 -11 -4 -6 4 9 14 -2 53 -14 46 -4 -3 -6 5 -2 17 3 13 1 19 -5 15 -7
-5 -9 1 -5 15 3 13 1 19 -5 15 -7 -5 -9 1 -5 15 3 13 1 19 -5 15 -7 -5 -9 1
-5 15 4 16 2 19 -8 13 -8 -5 -11 -4 -6 3 9 15 -16 102 -27 95 -6 -3 -7 -1 -4
4 9 14 -3 74 -13 68 -5 -3 -6 5 -2 17 3 13 1 19 -5 15 -6 -4 -8 4 -5 20 3 17
1 24 -6 19 -6 -4 -8 2 -4 16 3 13 1 19 -5 15 -6 -4 -8 4 -5 20 4 19 2 24 -8
18 -9 -5 -11 -4 -6 3 4 6 0 37 -8 69 -24 95 -94 426 -102 483 -4 31 -10 47
-15 39 -4 -7 -5 7 -2 31 4 24 2 41 -3 37 -5 -3 -9 11 -10 31 0 21 -8 109 -18
197 -30 284 -36 541 -36 1570 0 576 -4 1102 -10 1225 -40 804 -199 1453 -514
2104 -90 185 -219 419 -228 411 -2 -3 -5 1 -5 8 0 42 -309 475 -477 667 -566
650 -1215 1114 -2006 1433 -338 136 -794 254 -1220 314 l-255 36 -400 0 c-399
1 -401 1 -640 -32 -912 -126 -1721 -455 -2430 -989 -333 -251 -672 -579 -921
-892 -37 -47 -93 -116 -124 -155 -48 -61 -170 -241 -294 -438 -52 -83 -233
-446 -271 -547 -18 -47 -52 -128 -75 -180 -96 -213 -213 -621 -275 -954 -73
-400 -85 -670 -85 -1936 0 -553 -5 -1104 -10 -1225 -13 -275 -66 -706 -120
-980 -105 -531 -339 -1188 -567 -1597 -47 -84 -118 -211 -158 -283 -157 -286
-517 -769 -785 -1053 -581 -617 -1209 -1070 -1937 -1400 -243 -110 -295 -131
-534 -215 -313 -110 -729 -218 -988 -258 -44 -7 -78 -16 -75 -21 3 -4 -2 -5
-10 -2 -9 3 -59 -1 -113 -10 -417 -68 -1262 -68 -1657 0 -49 8 -101 13 -115 9
-21 -4 -23 -3 -11 5 12 9 7 10 -22 8 -20 -2 -35 -1 -33 3 3 3 -17 9 -43 13
-108 14 -436 91 -628 147 -113 32 -211 56 -216 52 -7 -4 -8 -1 -3 7 6 10 3 12
-13 8 -14 -4 -20 -2 -15 5 4 6 -2 8 -15 5 -12 -4 -20 -2 -16 3 5 8 -12 13 -43
12 -7 -1 -11 2 -8 6 2 4 -28 18 -68 30 -253 81 -657 265 -967 441 -80 45 -151
83 -158 83 -6 0 -10 2 -7 5 2 3 -48 41 -113 85 -460 315 -569 400 -855 671
-272 256 -596 616 -730 808 -30 43 -56 76 -59 73 -2 -3 -5 1 -5 7 0 17 -139
219 -145 213 -3 -3 -5 1 -5 7 0 7 -26 50 -57 95 -133 192 -361 633 -471 910
-38 95 -72 170 -76 168 -4 -3 -5 5 -1 17 3 13 1 19 -5 15 -7 -5 -9 1 -5 15 3
13 1 19 -5 15 -7 -5 -9 1 -5 15 3 13 1 19 -5 15 -7 -5 -9 1 -5 15 3 13 1 19
-5 15 -7 -5 -9 1 -5 15 4 16 2 19 -8 13 -9 -5 -11 -4 -6 4 9 14 -2 53 -14 46
-4 -3 -6 5 -2 17 3 13 1 19 -5 15 -7 -5 -9 1 -5 15 3 13 1 19 -5 15 -7 -5 -9
1 -5 15 3 13 1 19 -5 15 -7 -5 -9 1 -5 15 4 16 2 19 -8 13 -8 -5 -11 -4 -6 3
9 15 -16 102 -27 95 -6 -3 -7 -1 -4 4 9 14 -3 74 -13 68 -5 -3 -6 5 -2 17 3
13 1 19 -5 15 -6 -4 -8 4 -5 20 3 17 1 24 -6 19 -6 -4 -8 2 -4 16 3 13 1 19
-5 15 -6 -4 -8 4 -5 20 4 19 2 24 -8 18 -9 -5 -11 -4 -6 3 4 6 0 37 -8 69 -24
95 -94 426 -102 483 -4 31 -10 47 -15 39 -4 -7 -5 7 -3 32 3 25 2 39 -3 32 -5
-7 -9 4 -9 30 -1 75 -28 318 -34 303 -3 -9 -6 19 -8 62 -1 42 -6 4809 -11
10592 -7 8876 -11 10534 -22 10640 -8 69 -17 119 -19 113 -3 -7 -5 24 -5 70
-1 97 -56 528 -67 521 -4 -3 -5 2 -2 11 8 19 -57 395 -67 389 -4 -2 -5 5 -2
17 8 28 -58 303 -69 287 -4 -7 -5 2 -1 21 4 22 3 32 -4 28 -6 -4 -8 4 -5 20 3
18 1 24 -6 19 -7 -4 -10 -2 -6 7 9 25 -115 474 -128 461 -4 -3 -4 4 -1 17 4
14 2 20 -4 16 -7 -5 -9 1 -5 15 4 16 2 19 -8 13 -9 -5 -11 -4 -6 4 9 15 -3 73
-14 66 -4 -3 -6 5 -2 17 3 13 1 19 -5 15 -7 -5 -9 1 -5 15 3 13 1 19 -5 15 -7
-5 -9 1 -5 15 4 16 2 19 -8 13 -8 -5 -11 -4 -7 2 8 13 -26 117 -35 108 -4 -4
-4 3 -1 16 4 15 3 20 -5 15 -7 -4 -10 -2 -7 6 3 7 -12 60 -33 118 -65 175 -84
220 -92 215 -4 -3 -8 1 -7 8 1 34 -4 48 -15 41 -6 -4 -8 -3 -4 4 9 15 -74 213
-87 205 -6 -4 -7 -1 -2 6 9 15 -34 113 -46 105 -5 -3 -6 3 -2 12 5 13 3 15 -7
9 -8 -5 -11 -4 -6 3 9 14 -195 422 -208 415 -5 -3 -6 -1 -2 5 18 29 -360 685
-447 777 -7 6 -7 5 -2 -4 5 -10 4 -12 -4 -7 -6 4 -9 11 -6 16 3 5 -34 64 -81
132 -121 172 -150 208 -158 200 -4 -4 -6 -2 -4 5 5 19 -175 254 -367 478 -232
271 -695 734 -965 966 -353 303 -777 610 -1150 834 -289 173 -875 470 -1175
595 -362 151 -747 280 -1220 408 -367 100 -953 197 -1469 242 -221 20 -769 32
-1021 24z m113 -1841 c-10 -2 -26 -2 -35 0 -10 3 -2 5 17 5 19 0 27 -2 18 -5z
m465 0 c-7 -2 -21 -2 -30 0 -10 3 -4 5 12 5 17 0 24 -2 18 -5z m-715 -10 c-10
-2 -28 -2 -40 0 -13 2 -5 4 17 4 22 1 32 -1 23 -4z m970 0 c-10 -2 -26 -2 -35
0 -10 3 -2 5 17 5 19 0 27 -2 18 -5z m4893 -10 c13 -16 12 -17 -3 -4 -10 7
-18 15 -18 17 0 8 8 3 21 -13z m-5963 0 c-10 -2 -26 -2 -35 0 -10 3 -2 5 17 5
19 0 27 -2 18 -5z m1165 0 c-7 -2 -21 -2 -30 0 -10 3 -4 5 12 5 17 0 24 -2 18
-5z m-1260 -10 c-7 -2 -19 -2 -25 0 -7 3 -2 5 12 5 14 0 19 -2 13 -5z m6203
-105 c4 -7 -20 9 -54 35 -34 26 -64 53 -68 59 -4 7 20 -9 54 -35 34 -26 64
-53 68 -59z m-6383 85 c-7 -2 -19 -2 -25 0 -7 3 -2 5 12 5 14 0 19 -2 13 -5z
m-65 -10 c-10 -2 -26 -2 -35 0 -10 3 -2 5 17 5 19 0 27 -2 18 -5z m1845 0 c-7
-2 -19 -2 -25 0 -7 3 -2 5 12 5 14 0 19 -2 13 -5z m-1973 -18 c-41 -8 -86 -13
-100 -13 -40 1 91 26 135 26 29 0 19 -4 -35 -13z m2048 8 c-10 -2 -26 -2 -35
0 -10 3 -2 5 17 5 19 0 27 -2 18 -5z m65 -10 c-7 -2 -21 -2 -30 0 -10 3 -4 5
12 5 17 0 24 -2 18 -5z m54 -9 c-3 -3 -12 -4 -19 -1 -8 3 -5 6 6 6 11 1 17 -2
13 -5z m-2304 -11 c-7 -2 -21 -2 -30 0 -10 3 -4 5 12 5 17 0 24 -2 18 -5z
m2364 1 c-3 -3 -12 -4 -19 -1 -8 3 -5 6 6 6 11 1 17 -2 13 -5z m-2617 -49
c-113 -23 -234 -50 -269 -59 -35 -10 -65 -15 -67 -13 -8 8 205 62 346 88 224
41 218 32 -10 -16z m2677 39 c-3 -3 -12 -4 -19 -1 -8 3 -5 6 6 6 11 1 17 -2
13 -5z m50 -10 c-3 -3 -12 -4 -19 -1 -8 3 -5 6 6 6 11 1 17 -2 13 -5z m56 -11
c-7 -2 -19 -2 -25 0 -7 3 -2 5 12 5 14 0 19 -2 13 -5z m142 -23 c54 -10 100
-22 103 -25 8 -8 -4 -6 -123 19 -60 13 -103 24 -93 25 9 1 60 -8 113 -19z
m4076 -7 c13 -16 12 -17 -3 -4 -10 7 -18 15 -18 17 0 8 8 3 21 -13z m-3934
-29 c-3 -3 -12 -4 -19 -1 -8 3 -5 6 6 6 11 1 17 -2 13 -5z m-3420 -40 c-3 -3
-12 -4 -19 -1 -8 3 -5 6 6 6 11 1 17 -2 13 -5z m-40 -10 c-3 -3 -12 -4 -19 -1
-8 3 -5 6 6 6 11 1 17 -2 13 -5z m7748 -235 c17 -18 -30 20 -102 85 -73 65
-133 120 -133 123 0 7 201 -171 235 -208z m-8095 131 c-8 -5 -19 -10 -25 -10
-5 0 -3 5 5 10 8 5 20 10 25 10 6 0 3 -5 -5 -10z m-230 -80 c-8 -5 -19 -10
-25 -10 -5 0 -3 5 5 10 8 5 20 10 25 10 6 0 3 -5 -5 -10z m-41 -14 c-2 -2 -76
-34 -164 -69 -450 -184 -996 -475 -1328 -709 -56 -39 -124 -87 -152 -106 -89
-63 -32 -14 83 71 277 204 845 523 1208 678 269 115 373 154 353 135z m5021
-56 c8 -5 11 -10 5 -10 -5 0 -17 5 -25 10 -8 5 -10 10 -5 10 6 0 17 -5 25 -10z
m280 -120 c8 -5 11 -10 5 -10 -5 0 -17 5 -25 10 -8 5 -10 10 -5 10 6 0 17 -5
25 -10z m89 -35 c61 -25 231 -113 231 -120 0 -4 -291 134 -299 141 -9 8 8 3
68 -21z m341 -180 c0 -3 -18 4 -40 15 -22 11 -40 23 -40 25 0 3 18 -4 40 -15
22 -11 40 -23 40 -25z m110 -61 c0 -2 -13 2 -30 11 -16 9 -30 18 -30 21 0 2
14 -2 30 -11 17 -9 30 -18 30 -21z m2935 16 c10 -11 16 -20 13 -20 -3 0 -13 9
-23 20 -10 11 -16 20 -13 20 3 0 13 -9 23 -20z m-2845 -66 c0 -2 -9 0 -20 6
-11 6 -20 13 -20 16 0 2 9 0 20 -6 11 -6 20 -13 20 -16z m50 -30 c0 -2 -9 0
-20 6 -11 6 -20 13 -20 16 0 2 9 0 20 -6 11 -6 20 -13 20 -16z m50 -30 c0 -2
-9 0 -20 6 -11 6 -20 13 -20 16 0 2 9 0 20 -6 11 -6 20 -13 20 -16z m50 -30
c0 -2 -9 0 -20 6 -11 6 -20 13 -20 16 0 2 9 0 20 -6 11 -6 20 -13 20 -16z m50
-30 c0 -2 -9 0 -20 6 -11 6 -20 13 -20 16 0 2 9 0 20 -6 11 -6 20 -13 20 -16z
m260 -170 c0 -3 -20 9 -45 26 -25 17 -45 33 -45 36 0 3 20 -9 45 -26 25 -17
45 -33 45 -36z m31 -21 c13 -16 12 -17 -3 -4 -10 7 -18 15 -18 17 0 8 8 3 21
-13z m2790 -110 c13 -16 12 -17 -3 -4 -10 7 -18 15 -18 17 0 8 8 3 21 -13z
m-10911 3 c0 -2 -8 -10 -17 -17 -16 -13 -17 -12 -4 4 13 16 21 21 21 13z m-40
-30 c0 -2 -69 -59 -152 -127 -338 -274 -629 -550 -847 -801 -51 -60 -95 -108
-98 -108 -12 0 215 256 348 391 163 166 479 446 644 572 104 79 105 79 105 73z
m11001 -33 c13 -16 12 -17 -3 -4 -10 7 -18 15 -18 17 0 8 8 3 21 -13z m-2516
-73 c10 -11 16 -20 13 -20 -3 0 -13 9 -23 20 -10 11 -16 20 -13 20 3 0 13 -9
23 -20z m56 -47 c13 -16 12 -17 -3 -4 -10 7 -18 15 -18 17 0 8 8 3 21 -13z
m270 -230 c13 -16 12 -17 -3 -4 -10 7 -18 15 -18 17 0 8 8 3 21 -13z m74 -63
c10 -11 16 -20 13 -20 -3 0 -13 9 -23 20 -10 11 -16 20 -13 20 3 0 13 -9 23
-20z m2764 -510 c76 -124 157 -263 180 -310 51 -105 39 -88 -40 55 -33 61
-109 187 -168 280 -59 94 -118 188 -130 210 -21 37 -21 38 -2 15 12 -14 84
-126 160 -250z m-12893 -264 c-480 -589 -875 -1317 -1160 -2136 -36 -102 -65
-180 -65 -174 -1 12 111 346 157 469 53 142 186 434 312 685 153 307 372 664
578 944 130 177 293 376 308 376 2 0 -56 -74 -130 -164z m13608 -1196 c5 -17
4 -20 -2 -10 -5 8 -13 26 -16 40 -5 17 -4 20 2 10 5 -8 13 -26 16 -40z m-1735
-585 c0 -5 -6 1 -14 15 -8 14 -14 30 -14 35 0 6 6 -1 14 -15 8 -14 14 -29 14
-35z m-13132 -677 c-3 -8 -6 -5 -6 6 -1 11 2 17 5 13 3 -3 4 -12 1 -19z
m15240 0 c-3 -8 -6 -5 -6 6 -1 11 2 17 5 13 3 -3 4 -12 1 -19z m-15250 -40
c-3 -8 -6 -5 -6 6 -1 11 2 17 5 13 3 -3 4 -12 1 -19z m15260 0 c-3 -8 -6 -5
-6 6 -1 11 2 17 5 13 3 -3 4 -12 1 -19z m-15270 -40 c-3 -8 -6 -5 -6 6 -1 11
2 17 5 13 3 -3 4 -12 1 -19z m-31 -124 c-36 -144 -101 -484 -127 -668 -13 -87
-25 -154 -27 -148 -7 21 27 267 68 488 35 193 97 441 107 430 2 -2 -7 -48 -21
-102z m15431 -656 c-3 -7 -5 -2 -5 12 0 14 2 19 5 13 2 -7 2 -19 0 -25z m10
-85 c-3 -10 -5 -4 -5 12 0 17 2 24 5 18 2 -7 2 -21 0 -30z m10 -90 c-3 -10 -5
-4 -5 12 0 17 2 24 5 18 2 -7 2 -21 0 -30z m-15610 -65 c-2 -13 -4 -5 -4 17
-1 22 1 32 4 23 2 -10 2 -28 0 -40z m-10 -100 c-2 -13 -4 -3 -4 22 0 25 2 35
4 23 2 -13 2 -33 0 -45z m-13 -130 c-4 -51 -9 -87 -12 -80 -5 17 8 185 15 179
2 -3 1 -47 -3 -99z m15663 -110 c-2 -18 -4 -4 -4 32 0 36 2 50 4 33 2 -18 2
-48 0 -65z m-15680 -180 c-2 -29 -3 -6 -3 52 0 58 1 81 3 53 2 -29 2 -77 0
-105z m15690 -85 c-2 -16 -4 -3 -4 27 0 30 2 43 4 28 2 -16 2 -40 0 -55z
m-15700 -120 c-2 -21 -4 -6 -4 32 0 39 2 55 4 38 2 -18 2 -50 0 -70z m-10967
-2603 c6 -11 8 -20 6 -20 -3 0 -10 9 -16 20 -6 11 -8 20 -6 20 3 0 10 -9 16
-20z m-5021 -1209 c-6 -18 -13 -30 -15 -28 -2 2 1 18 7 36 6 18 13 30 15 28 2
-2 -1 -18 -7 -36z m5528 -223 c-3 -8 -6 -5 -6 6 -1 11 2 17 5 13 3 -3 4 -12 1
-19z m-16047 -7198 c-8 -5 -19 -10 -25 -10 -5 0 -3 5 5 10 8 5 20 10 25 10 6
0 3 -5 -5 -10z m-350 -213 c0 -1 -32 -34 -72 -72 -61 -59 -65 -62 -23 -15 56
62 95 98 95 87z m-443 -649 c-3 -8 -6 -5 -6 6 -1 11 2 17 5 13 3 -3 4 -12 1
-19z m59493 -2894 c-56 -17 -64 -17 -25 1 17 8 39 14 50 14 11 0 0 -7 -25 -15z
m1757 10 c-3 -3 -12 -4 -19 -1 -8 3 -5 6 6 6 11 1 17 -2 13 -5z m-2947 -627
c0 -2 -24 -23 -52 -46 l-53 -43 48 46 c45 43 57 51 57 43z m-180 -160 c0 -1
-39 -41 -87 -87 l-88 -85 85 88 c79 81 90 92 90 84z m-190 -200 c0 -2 -12 -14
-27 -28 l-28 -24 24 28 c23 25 31 32 31 24z m-50 -60 c0 -2 -12 -14 -27 -28
l-28 -24 24 28 c23 25 31 32 31 24z m-60 -70 c0 -2 -10 -12 -22 -23 l-23 -19
19 23 c18 21 26 27 26 19z m-240 -337 c-6 -11 -13 -20 -16 -20 -2 0 0 9 6 20
6 11 13 20 16 20 2 0 0 -9 -6 -20z m-237 -487 c-35 -87 -73 -191 -85 -231 -23
-80 -36 -92 -17 -16 22 88 149 404 163 404 2 0 -26 -71 -61 -157z m-126 -365
c-3 -8 -6 -5 -6 6 -1 11 2 17 5 13 3 -3 4 -12 1 -19z m-100 -525 c-3 -10 -5
-2 -5 17 0 19 2 27 5 18 2 -10 2 -26 0 -35z m-10 -160 c-2 -21 -4 -6 -4 32 0
39 2 55 4 38 2 -18 2 -50 0 -70z m-10 -145 c-2 -13 -4 -3 -4 22 0 25 2 35 4
23 2 -13 2 -33 0 -45z m-40 -2770 c-2 -13 -4 -5 -4 17 -1 22 1 32 4 23 2 -10
2 -28 0 -40z m-10 -105 c-3 -10 -5 -2 -5 17 0 19 2 27 5 18 2 -10 2 -26 0 -35z
m-13573 -1502 c14 -35 24 -66 22 -68 -4 -4 -39 77 -51 117 -13 42 2 18 29 -49z
m1196 -1838 c0 -8 -9 0 -50 45 l-45 47 48 -45 c26 -24 47 -45 47 -47z m22480
0 c0 -8 -9 0 -50 45 l-45 47 48 -45 c26 -24 47 -45 47 -47z m-22365 -123 c44
-44 77 -80 75 -80 -3 0 -41 36 -85 80 -44 44 -77 80 -75 80 3 0 41 -36 85 -80z
m11058 33 c-34 -61 -133 -203 -140 -203 -6 0 -1 8 95 153 70 104 90 126 45 50z
m11422 -33 c44 -44 77 -80 75 -80 -3 0 -41 36 -85 80 -44 44 -77 80 -75 80 3
0 41 -36 85 -80z m-22289 -182 l29 -33 -32 29 c-31 28 -38 36 -30 36 2 0 16
-15 33 -32z m22480 0 l29 -33 -32 29 c-31 28 -38 36 -30 36 2 0 16 -15 33 -32z
m-21856 -514 c0 -3 -20 9 -45 26 -25 17 -45 33 -45 36 0 3 20 -9 45 -26 25
-17 45 -33 45 -36z m9530 -227 c0 -2 -12 -14 -27 -28 l-28 -24 24 28 c23 25
31 32 31 24z m22480 0 c0 -2 -12 -14 -27 -28 l-28 -24 24 28 c23 25 31 32 31
24z m-22570 -102 c-24 -25 -46 -45 -49 -45 -3 0 15 20 39 45 24 25 46 45 49
45 3 0 -15 -20 -39 -45z m22480 0 c-24 -25 -46 -45 -49 -45 -3 0 15 20 39 45
24 25 46 45 49 45 3 0 -15 -20 -39 -45z m-72873 -57 c-2 -13 -4 -5 -4 17 -1
22 1 32 4 23 2 -10 2 -28 0 -40z m6500 -80 c-2 -13 -4 -3 -4 22 0 25 2 35 4
23 2 -13 2 -33 0 -45z m-6490 -55 c-2 -16 -4 -3 -4 27 0 30 2 43 4 28 2 -16 2
-40 0 -55z m50243 44 c0 -1 -64 -65 -142 -142 l-143 -140 140 143 c130 132
145 147 145 139z m22480 0 c0 -1 -57 -58 -127 -127 l-128 -125 125 128 c116
118 130 132 130 124z m-66243 -164 c-2 -21 -4 -6 -4 32 0 39 2 55 4 38 2 -18
2 -50 0 -70z m-6470 10 c-3 -10 -5 -4 -5 12 0 17 2 24 5 18 2 -7 2 -21 0 -30z
m10 -65 c-3 -8 -6 -5 -6 6 -1 11 2 17 5 13 3 -3 4 -12 1 -19z m62 -283 c-1
-21 -27 63 -33 105 -4 34 -1 28 14 -25 11 -38 19 -74 19 -80z m49761 110 c-7
-9 -40 -38 -74 -66 -60 -50 -60 -50 9 15 69 64 90 81 65 51z m22480 0 c-7 -9
-40 -38 -74 -66 -60 -50 -60 -50 9 15 69 64 90 81 65 51z m-65873 -37 c-3 -7
-5 -2 -5 12 0 14 2 19 5 13 2 -7 2 -19 0 -25z m-10 -70 c-3 -7 -5 -2 -5 12 0
14 2 19 5 13 2 -7 2 -19 0 -25z m43253 -21 c0 -2 -10 -12 -22 -23 l-23 -19 19
23 c18 21 26 27 26 19z m-49552 -137 c99 -265 251 -521 435 -735 84 -97 94
-109 81 -102 -37 21 -249 286 -306 382 -92 153 -201 376 -227 462 -12 40 -24
80 -28 90 -3 10 -4 16 0 13 3 -3 23 -52 45 -110z m6269 -22 c-3 -8 -6 -5 -6 6
-1 11 2 17 5 13 3 -3 4 -12 1 -19z m-27 -130 c-12 -46 -24 -85 -27 -88 -3 -3
-3 6 0 20 4 13 14 60 24 105 9 44 19 72 21 63 2 -10 -6 -55 -18 -100z m-5630
-763 c13 -14 21 -25 18 -25 -2 0 -15 11 -28 25 -13 14 -21 25 -18 25 2 0 15
-11 28 -25z m80 -70 c13 -14 21 -25 18 -25 -2 0 -15 11 -28 25 -13 14 -21 25
-18 25 2 0 15 -11 28 -25z m240 -176 c30 -18 123 -68 205 -111 148 -78 167
-98 30 -32 -124 60 -249 132 -286 166 -19 18 -28 28 -20 22 9 -7 41 -27 71
-45z m2510 -4 c0 -2 -10 -9 -22 -15 -22 -11 -22 -10 -4 4 21 17 26 19 26 11z
m-200 -110 c0 -6 -76 -45 -87 -45 -4 1 12 12 37 25 50 27 50 27 50 20z m-1643
-181 c-3 -3 -12 -4 -19 -1 -8 3 -5 6 6 6 11 1 17 -2 13 -5z m40 -10 c-3 -3
-12 -4 -19 -1 -8 3 -5 6 6 6 11 1 17 -2 13 -5z m4016 -41 c-29 -46 -155 -213
-160 -213 -3 0 6 15 19 33 14 17 53 71 87 120 60 83 91 118 54 60z m-3590 -20
c-7 -2 -19 -2 -25 0 -7 3 -2 5 12 5 14 0 19 -2 13 -5z m3427 -207 c0 -2 -8
-10 -17 -17 -16 -13 -17 -12 -4 4 13 16 21 21 21 13z m-30 -39 c0 -2 -10 -12
-22 -23 l-23 -19 19 23 c18 21 26 27 26 19z m-126 -149 c-92 -111 -256 -280
-339 -350 -33 -28 6 14 86 93 81 79 186 190 234 247 48 56 89 102 92 102 2 0
-30 -42 -73 -92z m-1204 -953 c0 -2 -13 -11 -30 -20 -38 -19 -40 -11 -2 9 31
17 32 18 32 11z m7957 -9322 c-2 -16 -4 -5 -4 22 0 28 2 40 4 28 2 -13 2 -35
0 -50z m10400 -90 c-2 -16 -4 -5 -4 22 0 28 2 40 4 28 2 -13 2 -35 0 -50z
m-10390 -100 c-2 -21 -4 -4 -4 37 0 41 2 58 4 38 2 -21 2 -55 0 -75z m10380
-130 c-2 -21 -4 -6 -4 32 0 39 2 55 4 38 2 -18 2 -50 0 -70z m-10349 -168 c-1
-52 -16 39 -22 130 l-5 80 14 -90 c7 -49 13 -103 13 -120z m9 -72 c-3 -10 -5
-4 -5 12 0 17 2 24 5 18 2 -7 2 -21 0 -30z m52 -273 c-1 -8 -5 -1 -10 15 -12
39 -39 196 -38 215 2 18 48 -208 48 -230z m8 -42 c-3 -8 -6 -5 -6 6 -1 11 2
17 5 13 3 -3 4 -12 1 -19z m162 -528 c38 -102 68 -186 67 -188 -13 -12 -161
406 -197 556 -43 182 -34 171 16 -18 24 -91 75 -248 114 -350z m10028 368 c-3
-8 -6 -5 -6 6 -1 11 2 17 5 13 3 -3 4 -12 1 -19z m-13 -72 c-3 -21 -8 -35 -11
-32 -2 2 -1 20 3 40 3 21 8 35 11 32 2 -2 1 -20 -3 -40z m-17 -78 c-3 -7 -5
-2 -5 12 0 14 2 19 5 13 2 -7 2 -19 0 -25z m-10 -50 c-3 -7 -5 -2 -5 12 0 14
2 19 5 13 2 -7 2 -19 0 -25z m-10 -40 c-3 -8 -6 -5 -6 6 -1 11 2 17 5 13 3 -3
4 -12 1 -19z m-40 -180 c-3 -8 -6 -5 -6 6 -1 11 2 17 5 13 3 -3 4 -12 1 -19z
m-18 -67 c-7 -23 -14 -39 -16 -37 -3 2 1 23 8 45 7 23 14 39 16 37 3 -2 -1
-23 -8 -45z m-30 -100 c-7 -23 -14 -39 -16 -37 -3 2 1 23 8 45 7 23 14 39 16
37 3 -2 -1 -23 -8 -45z m-9799 -16 c0 -5 -5 -3 -10 5 -5 8 -10 20 -10 25 0 6
5 3 10 -5 5 -8 10 -19 10 -25z m9774 -69 c-3 -15 -8 -25 -11 -23 -2 3 -1 17 3
31 3 15 8 25 11 23 2 -3 1 -17 -3 -31z m-30 -100 c-3 -15 -8 -25 -11 -23 -2 3
-1 17 3 31 3 15 8 25 11 23 2 -3 1 -17 -3 -31z m-113 -313 c-12 -20 -14 -14
-5 12 4 9 9 14 11 11 3 -2 0 -13 -6 -23z m-30 -80 c-12 -20 -14 -14 -5 12 4 9
9 14 11 11 3 -2 0 -13 -6 -23z m-100 -240 c-12 -20 -14 -14 -5 12 4 9 9 14 11
11 3 -2 0 -13 -6 -23z m-45 -100 c-14 -26 -25 -45 -26 -41 0 12 43 98 48 94 2
-2 -8 -26 -22 -53z m-8855 -90 c13 -16 12 -17 -3 -4 -17 13 -22 21 -14 21 2 0
10 -8 17 -17z m59 -68 c13 -14 21 -25 18 -25 -2 0 -15 11 -28 25 -13 14 -21
25 -18 25 2 0 15 -11 28 -25z m60 -70 c19 -19 32 -35 29 -35 -3 0 -20 16 -39
35 -19 19 -32 35 -29 35 3 0 20 -16 39 -35z m145 -155 c55 -55 97 -100 95
-100 -3 0 -50 45 -105 100 -55 55 -97 100 -95 100 3 0 50 -45 105 -100z m8409
33 c-15 -27 -32 -52 -37 -58 -11 -12 19 49 41 83 26 40 23 23 -4 -25z m-59
-103 c-9 -16 -18 -30 -21 -30 -2 0 2 14 11 30 9 17 18 30 21 30 2 0 -2 -13
-11 -30z m-8115 -155 c19 -19 32 -35 29 -35 -3 0 -20 16 -39 35 -19 19 -32 35
-29 35 3 0 20 -16 39 -35z m61 -52 c13 -16 12 -17 -3 -4 -17 13 -22 21 -14 21
2 0 10 -8 17 -17z m7769 -247 c0 -2 -8 -10 -17 -17 -16 -13 -17 -12 -4 4 13
16 21 21 21 13z m-50 -66 c-12 -16 -24 -30 -26 -30 -3 0 4 14 16 30 12 17 24
30 26 30 3 0 -4 -13 -16 -30z m-90 -124 c0 -2 -8 -10 -17 -17 -16 -13 -17 -12
-4 4 13 16 21 21 21 13z m-40 -50 c0 -2 -8 -10 -17 -17 -16 -13 -17 -12 -4 4
13 16 21 21 21 13z m-30 -40 c0 -2 -8 -10 -17 -17 -16 -13 -17 -12 -4 4 13 16
21 21 21 13z m-59 -74 c-17 -22 -38 -45 -48 -53 -10 -8 2 10 26 39 51 60 68
71 22 14z m-61 -75 c0 -2 -17 -19 -37 -38 l-38 -34 34 38 c33 34 41 42 41 34z
m-6100 -87 c8 -5 11 -10 5 -10 -5 0 -17 5 -25 10 -8 5 -10 10 -5 10 6 0 17 -5
25 -10z m5922 -107 c-50 -54 -116 -123 -148 -153 -32 -30 6 14 85 98 79 83
146 152 148 152 3 0 -35 -44 -85 -97z m-4664 -140 c-10 -2 -26 -2 -35 0 -10 3
-2 5 17 5 19 0 27 -2 18 -5z m355 0 c-7 -2 -19 -2 -25 0 -7 3 -2 5 12 5 14 0
19 -2 13 -5z m3997 -176 c0 -2 -10 -12 -22 -23 l-23 -19 19 23 c18 21 26 27
26 19z m-90 -80 c0 -2 -12 -14 -27 -28 l-28 -24 24 28 c23 25 31 32 31 24z
m-90 -80 c0 -2 -15 -16 -32 -33 l-33 -29 29 33 c28 30 36 37 36 29z m-90 -80
c0 -2 -10 -12 -22 -23 l-23 -19 19 23 c18 21 26 27 26 19z m-180 -141 c0 -4
-126 -99 -180 -136 -64 -43 -16 -2 80 69 98 72 100 74 100 67z m-220 -160 c0
-6 -237 -169 -270 -186 -46 -24 -11 2 127 96 147 99 143 96 143 90z m-1911
-900 c-6 -7 -166 -46 -181 -45 -7 0 25 11 72 24 83 23 117 29 109 21z m-202
-52 c-3 -3 -12 -4 -19 -1 -8 3 -5 6 6 6 11 1 17 -2 13 -5z m-884 -141 c-7 -2
-19 -2 -25 0 -7 3 -2 5 12 5 14 0 19 -2 13 -5z m-900 -10 c-7 -2 -21 -2 -30 0
-10 3 -4 5 12 5 17 0 24 -2 18 -5z m795 0 c-10 -2 -26 -2 -35 0 -10 3 -2 5 17
5 19 0 27 -2 18 -5z"/>
<path d="M115705 59730 c4 -14 917 -3805 2030 -8425 1113 -4620 2065 -8562
2115 -8759 106 -415 139 -511 265 -772 180 -374 383 -661 652 -924 233 -229
443 -389 743 -568 208 -123 515 -248 790 -321 354 -94 507 -114 880 -114 377
-1 537 21 924 123 239 63 738 273 719 303 -3 5 -1 7 5 3 10 -6 87 38 286 168
269 176 575 468 775 739 93 127 204 298 204 314 0 7 3 10 7 8 10 -6 151 250
206 375 58 133 96 241 89 258 -2 7 -1 11 4 7 10 -6 43 83 47 130 2 21 4150
17227 4209 17458 l7 27 -970 0 -970 0 -12 -47 c-6 -27 -911 -3830 -2011 -8453
-1099 -4623 -2003 -8413 -2009 -8423 -6 -10 -8 -23 -4 -29 4 -6 3 -8 -3 -5 -5
3 -22 -33 -37 -81 -29 -88 -78 -193 -124 -266 -14 -23 -25 -46 -25 -53 0 -7
-4 -10 -9 -7 -4 3 -8 1 -8 -4 0 -17 -150 -210 -189 -244 -75 -65 -145 -131
-131 -123 8 4 12 4 7 0 -4 -5 -14 -10 -22 -11 -8 -1 -34 -18 -57 -37 -57 -46
-191 -117 -310 -165 -54 -21 -95 -42 -92 -45 3 -3 -4 -3 -17 0 -14 4 -20 2
-16 -4 5 -7 -1 -9 -15 -5 -13 3 -19 1 -15 -5 5 -7 -1 -9 -15 -5 -12 3 -19 1
-15 -5 3 -5 -2 -9 -11 -9 -56 0 -76 -5 -63 -13 10 -6 0 -8 -30 -5 -31 4 -40 3
-30 -5 11 -7 2 -8 -30 -5 -24 3 -39 2 -32 -3 6 -4 -77 -8 -185 -7 -232 1 -340
17 -512 76 -364 124 -631 329 -817 629 -62 99 -137 255 -168 347 -15 46 -29
82 -31 79 -2 -2 9 -42 25 -89 33 -97 118 -269 186 -373 l45 -70 -41 45 c-62
69 -226 407 -234 485 -3 23 -3964 16682 -4015 16885 l-11 45 -970 0 -970 0 6
-25z m6256 -17457 c13 -16 12 -17 -3 -4 -10 7 -18 15 -18 17 0 8 8 3 21 -13z
m4472 -33 c-3 -12 -8 -19 -11 -16 -5 6 5 36 12 36 2 0 2 -9 -1 -20z m-4215
-224 c34 -27 62 -51 62 -53 0 -15 -129 90 -195 159 -120 124 -133 144 -24 37
52 -52 123 -116 157 -143z m4123 -33 c-12 -20 -14 -14 -5 12 4 9 9 14 11 11 3
-2 0 -13 -6 -23z m-3951 -89 c0 -2 -9 0 -20 6 -11 6 -20 13 -20 16 0 2 9 0 20
-6 11 -6 20 -13 20 -16z m3874 -83 c-26 -56 -49 -100 -51 -97 -2 2 17 49 43
105 26 56 49 100 51 97 2 -2 -17 -49 -43 -105z m-3556 -52 c39 -12 70 -24 68
-27 -12 -12 -296 96 -296 113 0 2 35 -11 78 -29 43 -19 111 -44 150 -57z
m1062 31 c-8 -5 -19 -10 -25 -10 -5 0 -3 5 5 10 8 5 20 10 25 10 6 0 3 -5 -5
-10z m-917 -77 c-7 -2 -19 -2 -25 0 -7 3 -2 5 12 5 14 0 19 -2 13 -5z m60 -10
c-7 -2 -19 -2 -25 0 -7 3 -2 5 12 5 14 0 19 -2 13 -5z m60 -10 c-7 -2 -19 -2
-25 0 -7 3 -2 5 12 5 14 0 19 -2 13 -5z m341 -15 c-51 -9 -228 -9 -279 0 -23
5 36 8 139 7 98 0 161 -3 140 -7z m2346 -761 c0 -1 -30 -32 -67 -67 l-68 -65
65 68 c60 62 70 72 70 64z m-210 -201 c0 -2 -24 -23 -52 -46 l-53 -42 50 46
c50 46 55 49 55 42z m-110 -89 c0 -2 -12 -14 -27 -28 l-28 -24 24 28 c23 25
31 32 31 24z m-60 -50 c0 -2 -10 -12 -22 -23 l-23 -19 19 23 c18 21 26 27 26
19z m-50 -41 c0 -2 -8 -10 -17 -17 -16 -13 -17 -12 -4 4 13 16 21 21 21 13z"/>
<path d="M104185 59744 c-16 -2 -73 -9 -125 -15 -446 -52 -900 -373 -1138
-804 -75 -137 141 488 -3632 -10495 -1619 -4711 -2945 -8571 -2947 -8577 -4
-10 194 -13 970 -13 l974 0 45 128 c24 70 1378 4009 3008 8755 l2965 8627 21
-62 c12 -35 1357 -3942 2989 -8683 1632 -4741 2979 -8653 2992 -8692 l25 -73
975 0 c776 0 974 3 970 13 -2 6 -1452 4217 -3222 9357 -1769 5140 -3227 9368
-3240 9395 -12 28 -33 82 -45 120 -86 264 -284 528 -545 727 -171 129 -435
242 -645 274 -95 14 -339 26 -395 18z"/>
<path d="M104192 48583 c-27 -3 -40 -8 -36 -15 4 -7 2 -8 -4 -4 -24 15 -247
-68 -235 -87 3 -6 1 -7 -5 -3 -23 14 -171 -117 -250 -220 -38 -50 -83 -148
-113 -246 -33 -106 -32 -302 0 -408 50 -164 109 -258 232 -376 112 -107 260
-176 418 -195 294 -36 551 73 737 313 50 64 92 152 125 260 18 59 23 98 23
203 0 141 -15 212 -74 342 -50 110 -169 244 -285 321 -58 38 -196 93 -241 95
-18 1 -30 5 -28 8 9 15 -153 22 -264 12z m156 -10 c-21 -2 -57 -2 -80 0 -24 2
-7 4 37 4 44 0 63 -2 43 -4z m382 -119 c0 -2 -13 2 -30 11 -16 9 -30 18 -30
21 0 2 14 -2 30 -11 17 -9 30 -18 30 -21z m81 -61 c13 -16 12 -17 -3 -4 -10 7
-18 15 -18 17 0 8 8 3 21 -13z"/>
</g>
</svg>
